<svg width="18" height="15" viewBox="0 0 18 15" fill="none" xmlns="http://www.w3.org/2000/svg">
<path fill-rule="evenodd" clip-rule="evenodd" d="M10.0024 0.243987C9.68389 0.569485 9.68389 1.09538 10.0046 1.41866L13.645 5.09768L13.729 5.172C14.0505 5.41963 14.5093 5.39384 14.8013 5.09546C14.9606 4.93271 15.0403 4.72125 15.0403 4.50979C15.0403 4.29611 14.9606 4.08354 14.7992 3.92079L11.1599 0.241773L11.0758 0.167709C10.7542 -0.0790819 10.2944 -0.0533716 10.0024 0.243987ZM0.715597 6.67595C0.312323 6.72722 0 7.07674 0 7.49983C0 7.95819 0.366545 8.33019 0.818182 8.33019H15.2007L10.0047 13.5813L9.93123 13.6661C9.68621 13.9909 9.71055 14.4576 10.0025 14.756C10.3211 15.0804 10.8393 15.0815 11.1589 14.7582L17.7589 8.08772L17.8317 8.0042C17.9424 7.85812 18 7.67974 18 7.49983C18 7.39244 17.9793 7.28505 17.9378 7.18319C17.8113 6.87209 17.5135 6.66948 17.1818 6.66948H0.818182L0.715597 6.67595Z" fill="white"/>
</svg>
