<svg width="69" height="69" viewBox="0 0 69 69" fill="none" xmlns="http://www.w3.org/2000/svg">
<path d="M34.5 62.1C41.82 62.1 48.8401 59.1922 54.0161 54.0161C59.1922 48.8401 62.1 41.82 62.1 34.5C62.1 27.18 59.1922 20.1599 54.0161 14.9839C48.8401 9.80785 41.82 6.9 34.5 6.9C27.18 6.9 20.1599 9.80785 14.9839 14.9839C9.80785 20.1599 6.9 27.18 6.9 34.5C6.9 41.82 9.80785 48.8401 14.9839 54.0161C20.1599 59.1922 27.18 62.1 34.5 62.1ZM34.5 69C15.4457 69 0 53.5544 0 34.5C0 15.4457 15.4457 0 34.5 0C53.5544 0 69 15.4457 69 34.5C69 53.5544 53.5544 69 34.5 69ZM23.7705 38.5365L15.1524 35.8489C13.2894 35.2797 13.279 33.9963 15.5698 33.0751L49.1487 20.1032C51.0979 19.3097 52.202 20.3136 51.5706 22.8286L45.854 49.8077C45.4538 51.7293 44.298 52.1882 42.6938 51.3015L33.8928 44.7879L29.7908 48.7485C29.3699 49.1556 29.0283 49.5041 28.3797 49.5903C27.7346 49.68 27.2033 49.4868 26.8134 48.4173L23.8119 38.5124L23.7705 38.5399V38.5365Z" fill="#76B3EB"/>
</svg>
