<svg width="35" height="35" viewBox="0 0 35 35" fill="none" xmlns="http://www.w3.org/2000/svg">
<g clip-path="url(#clip0)">
<path d="M34.4587 0.791397C34.0312 0.281003 33.3909 0 32.6555 0C32.2557 0 31.8322 0.0821114 31.397 0.244509L1.77014 11.2847C0.19787 11.8704 -0.013884 12.7494 -0.000265503 13.2212C0.0133529 13.693 0.275842 14.559 1.87962 15.0571C1.88923 15.06 1.89884 15.0629 1.90846 15.0655L8.05386 16.7823L11.3773 26.0595C11.8304 27.3243 12.8476 28.11 14.0321 28.11C14.779 28.11 15.5136 27.8045 16.1566 27.2268L19.9577 23.8102L25.4711 28.1439C25.4716 28.1444 25.4724 28.1446 25.4729 28.1452L25.5253 28.1864C25.5301 28.19 25.5352 28.1939 25.54 28.1976C26.1528 28.6616 26.8217 28.9066 27.4751 28.9068H27.4754C28.7521 28.9068 29.7686 27.9843 30.0648 26.5569L34.9191 3.15803C35.114 2.21883 34.9506 1.37843 34.4587 0.791397ZM10.1097 16.4562L21.9661 10.5434L14.5835 18.2011C14.4625 18.3265 14.3768 18.48 14.3346 18.6471L12.9111 24.276L10.1097 16.4562ZM14.7672 25.754C14.7181 25.7981 14.6687 25.8374 14.6193 25.8737L15.94 20.6519L18.3425 22.5405L14.7672 25.754ZM32.9092 2.76051L28.0548 26.1596C28.0081 26.3836 27.8588 26.9046 27.4751 26.9046C27.2855 26.9046 27.0473 26.8038 26.8035 26.6205L20.5561 21.71C20.5553 21.7092 20.5543 21.7084 20.5532 21.7079L16.8359 18.7858L27.512 7.71169C27.8538 7.35718 27.8847 6.8142 27.5854 6.42476C27.2858 6.03531 26.7429 5.9128 26.2989 6.13437L8.73958 14.8913L2.51061 13.1516L32.1284 2.11482C32.3786 2.0215 32.5532 2.00195 32.6555 2.00195C32.7182 2.00195 32.8298 2.00925 32.8712 2.05904C32.9257 2.12395 32.9951 2.34526 32.9092 2.76051Z" fill="white"/>
</g>
<defs>
<clipPath id="clip0">
<rect width="35" height="34.1667" fill="white"/>
</clipPath>
</defs>
</svg>
