<svg width="32" height="32" viewBox="0 0 32 32" fill="none" xmlns="http://www.w3.org/2000/svg">
<path d="M31.8587 6.84615C31.6695 6.5384 31.3233 6.36397 30.9629 6.39522L29.3673 6.53422L30.8925 3.45965C31.0741 3.09347 31.0024 2.65228 30.7141 2.36247C30.4257 2.07265 29.985 1.99878 29.6179 2.17853L25.5812 4.15547C23.0873 2.83884 19.9715 3.22965 17.8275 5.18272C16.0381 6.81272 15.0975 9.3194 15.2729 11.8192C10.5961 11.3504 6.63736 8.67347 4.29648 4.34809C4.14117 4.06115 3.84999 3.87347 3.52455 3.8504C3.19849 3.82772 2.88436 3.97222 2.69024 4.23453C1.23836 6.1959 1.13649 8.88515 2.27467 11.0976C1.96092 11.0183 1.62705 10.9111 1.2568 10.7874C0.93961 10.6813 0.589923 10.7493 0.33536 10.9663C0.0807976 11.1833 -0.0415774 11.5177 0.0128601 11.8478C0.463235 14.5783 2.05549 16.6768 4.57073 17.9189C4.24324 18.033 3.90905 18.1256 3.56924 18.1964C3.23161 18.2668 2.95824 18.5138 2.85417 18.8426C2.75011 19.1713 2.83149 19.5307 3.06711 19.7825C4.87842 21.7187 7.49492 22.6716 9.35342 23.1287C7.2403 24.7835 4.95924 25.0605 1.64461 24.9467C1.26092 24.935 0.907423 25.1512 0.74611 25.499C0.58486 25.8468 0.647423 26.2575 0.90511 26.5415C2.28686 28.0646 7.32099 29.782 12.613 29.9107C12.8223 29.9158 13.0358 29.9185 13.2538 29.9185C16.9695 29.9185 21.8802 29.122 25.405 25.5972C28.0729 22.9293 29.7417 19.858 30.3647 16.4688C30.868 13.7315 30.5499 11.5395 30.3971 10.486C30.3859 10.4086 30.3739 10.3264 30.3641 10.2545L31.8567 7.8489C32.047 7.54203 32.0479 7.1539 31.8587 6.84615ZM28.5083 10.76C28.7915 12.7115 29.653 18.65 24.0555 24.2476C20.8017 27.5013 16.0625 28.0855 12.6594 28.0028C9.75555 27.9322 7.15817 27.3768 5.27567 26.7435C6.03999 26.6497 6.72111 26.5051 7.36405 26.3053C9.13649 25.7543 10.6339 24.763 12.0762 23.1856C12.3167 22.9227 12.3905 22.5478 12.268 22.2133C12.1454 21.8788 11.8467 21.6404 11.4933 21.5952C10.5834 21.4785 7.84924 21.0183 5.69624 19.5332C6.31667 19.2794 6.91505 18.9618 7.48642 18.5828C7.79986 18.3748 7.96199 18.0022 7.90024 17.6312C7.83855 17.2602 7.56473 16.9598 7.20086 16.8645C5.43867 16.4025 3.31192 15.3687 2.33124 13.061C2.95749 13.1708 3.63842 13.1973 4.36467 13.0345C4.7013 12.9592 4.97105 12.7079 5.07005 12.3774C5.16911 12.0469 5.08211 11.6887 4.84248 11.4405C3.62223 10.1767 3.16592 8.35528 3.55742 6.79672C4.83955 8.67053 6.46386 10.2475 8.32486 11.4135C10.7055 12.905 13.4842 13.7293 16.3605 13.797C16.6532 13.8032 16.9339 13.6755 17.1203 13.4487C17.3065 13.222 17.3782 12.9222 17.3145 12.6358C16.8196 10.4111 17.5254 8.03947 19.1127 6.59365C20.7589 5.09397 23.192 4.86647 25.0293 6.04078C25.3099 6.22009 25.6638 6.24015 25.9629 6.09365L27.9342 5.12815L26.9024 7.20822C26.7491 7.51728 26.7745 7.88503 26.969 8.16997C27.1634 8.4549 27.4959 8.61309 27.8401 8.5829L29.2302 8.46184L28.5899 9.49403C28.3749 9.84047 28.4195 10.1478 28.5083 10.76Z" fill="white"/>
</svg>
